<svg xmlns="http://www.w3.org/2000/svg" viewBox="0 0 117 117"><defs><style>.cls-1{fill:#0063a1;}</style></defs><g id="Layer_2" data-name="Layer 2"><g id="Layer_1-2" data-name="Layer 1"><polygon class="cls-1" points="117 117 0 117 0 108 0 90 9 90 9 108 108 108 108 90 117 90 117 117"/><polygon class="cls-1" points="117 81 108 81 108 9 9 9 9 81 0 81 0 0 117 0 117 81"/><path class="cls-1" d="M90,63V36H27V63H18V99h9V90H90v9h9V63ZM36,81H27V72h9Zm0-36H81V63H36ZM72,81H45V72H72Zm18,0H81V72h9Z"/></g></g></svg>