<svg xmlns="http://www.w3.org/2000/svg" viewBox="0 0 135 135"><defs><style>.cls-1{fill:#0063a2;}.cls-2{fill:#fff;}</style></defs><g id="Layer_2" data-name="Layer 2"><g id="Layer_1-2" data-name="Layer 1"><rect class="cls-1" width="135" height="135"/><polygon class="cls-2" points="126 126 9 126 9 117 9 99 18 99 18 117 117 117 117 99 126 99 126 126"/><polygon class="cls-2" points="126 90 117 90 117 18 18 18 18 90 9 90 9 9 126 9 126 90"/><path class="cls-2" d="M99,72V45H36V72H27v36h9V99H99v9h9V72ZM45,90H36V81h9Zm0-36H90V72H45ZM81,90H54V81H81Zm18,0H90V81h9Z"/></g></g></svg>