<svg xmlns="http://www.w3.org/2000/svg" viewBox="0 0 781 135"><defs><style>.cls-1{fill:#0063a1;}.cls-2{fill:#fff;}</style></defs><g id="Layer_2" data-name="Layer 2"><g id="Layer_1-2" data-name="Layer 1"><rect class="cls-1" x="135" width="646" height="135"/><rect class="cls-1" width="135" height="135"/><polygon class="cls-2" points="126 126 9 126 9 117 9 99 18 99 18 117 117 117 117 99 126 99 126 126"/><polygon class="cls-2" points="126 90 117 90 117 18 18 18 18 90 9 90 9 9 126 9 126 90"/><path class="cls-2" d="M99,72V45H36V72H27v36h9V99H99v9h9V72ZM45,90H36V81h9Zm0-36H90V72H45ZM81,90H54V81H81Zm18,0H90V81h9Z"/><path class="cls-2" d="M160,97.48V36.3h33.49q14.85,0,14.85,14.89v8.7q0,14.89-14.85,14.89H168.79v22.7ZM168.79,66h24.27c2.34,0,4-.51,5-1.53s1.53-2.7,1.53-5V51.61q0-3.49-1.53-5c-1-1-2.7-1.54-5-1.54H168.79Z"/><path class="cls-2" d="M242.43,36.3,266,97.48h-8.75L251.85,83.4h-27.6l-5.42,14.08h-8.74L233.68,36.3ZM227.58,74.65h20.9l-10.41-27Z"/><path class="cls-2" d="M324.85,58.14q0,12.8-10.92,14.59l11.52,24.75h-9.69L304.42,73H285.26V97.48h-8.75V36.3H310q14.85,0,14.85,14.89Zm-39.59,6.14h24.27q3.51,0,5-1.53c1-1,1.54-2.7,1.54-5v-6.1c0-2.33-.52-4-1.54-5s-2.7-1.54-5-1.54H285.26Z"/><path class="cls-2" d="M348.19,36.3V62.71L377.37,36.3H389.7l-33.11,30L391,97.48H378.69L348.19,70V97.48h-8.75V36.3Z"/><path class="cls-2" d="M423.23,57.19a6.36,6.36,0,0,1,.52-2.58,7,7,0,0,1,1.42-2.12,6.73,6.73,0,0,1,2.11-1.43,6.55,6.55,0,0,1,2.61-.53H439a6.38,6.38,0,0,1,2.52.51,6.81,6.81,0,0,1,2.1,1.37,7,7,0,0,1,1.45,2,6,6,0,0,1,.59,2.48V50.53h6.62V77.81h9.64V52.7a12.35,12.35,0,0,0-.68-4.23,8.33,8.33,0,0,0-5.14-5.14,12.29,12.29,0,0,0-4.22-.67H424.34a12.33,12.33,0,0,0-4.22.67,8.38,8.38,0,0,0-3.14,2,8.75,8.75,0,0,0-2,3.16,12.11,12.11,0,0,0-.69,4.23V82a12.87,12.87,0,0,0,.67,4.31,9,9,0,0,0,2,3.25,8.5,8.5,0,0,0,3.15,2,11.87,11.87,0,0,0,4.25.71h36a6.2,6.2,0,0,1-.54,2.54,7,7,0,0,1-3.58,3.58,6.23,6.23,0,0,1-2.54.54H424.61a19.46,19.46,0,0,1-7-1.2A14.63,14.63,0,0,1,408.85,89a19.51,19.51,0,0,1-1.2-7V53a19.51,19.51,0,0,1,1.2-7,14.63,14.63,0,0,1,8.77-8.77,19.46,19.46,0,0,1,7-1.2h27a19.51,19.51,0,0,1,7,1.2A14.7,14.7,0,0,1,467.39,46a19.51,19.51,0,0,1,1.2,7V77.81a6.5,6.5,0,0,1-.53,2.6,6.62,6.62,0,0,1-1.43,2.11,7,7,0,0,1-2.12,1.42,6.37,6.37,0,0,1-2.58.53h-9.64a6.48,6.48,0,0,1-2.48-.48,6.35,6.35,0,0,1-2-1.3,6.77,6.77,0,0,1-1.44-1.94,6.45,6.45,0,0,1-.66-2.37,6.12,6.12,0,0,1-.69,2.37,7.32,7.32,0,0,1-1.49,1.94,6.82,6.82,0,0,1-2,1.3,6.28,6.28,0,0,1-2.44.48h-9.12a6.55,6.55,0,0,1-2.61-.53,6.7,6.7,0,0,1-2.11-1.42,6.59,6.59,0,0,1-1.42-2.11,6.49,6.49,0,0,1-.52-2.6Zm22.44,0H429.89V77.81h15.78Z"/><path class="cls-2" d="M536.52,36.3V97.48h-8.75V71.28h-35v26.2H484V36.3h8.75V62.53h35V36.3Z"/><path class="cls-2" d="M604.65,88.73a8.62,8.62,0,0,1-.68,3.39,8.71,8.71,0,0,1-4.67,4.67,8.49,8.49,0,0,1-3.39.69H561a8.49,8.49,0,0,1-3.39-.69,8.71,8.71,0,0,1-4.67-4.67,8.62,8.62,0,0,1-.68-3.39V45a8.66,8.66,0,0,1,.68-3.39,8.49,8.49,0,0,1,1.88-2.77A9.32,9.32,0,0,1,557.57,37a8.33,8.33,0,0,1,3.39-.7h34.95a8.33,8.33,0,0,1,3.39.7,9.32,9.32,0,0,1,2.79,1.88A8.49,8.49,0,0,1,604,41.65a8.66,8.66,0,0,1,.68,3.39ZM561,45V88.73h34.95V45Z"/><path class="cls-2" d="M651.92,97.48,629.1,52.64V97.48h-8.75V36.3h9.56L653.2,82.37,676.54,36.3h9.51V97.48h-8.7V52.64L654.53,97.48Z"/><path class="cls-2" d="M701.8,36.3h44.58V45H710.54V62.53h30.59v8.75H710.54V88.73h35.84v8.75H701.8Z"/><polygon class="cls-2" points="133 99 133 126 772 126 772 99 762.87 99 762.87 117 142.13 117 142.13 99 133 99"/></g></g></svg>