<svg xmlns="http://www.w3.org/2000/svg" viewBox="0 0 657 243"><defs><style>.cls-1{fill:#0063a1;}.cls-2{fill:#0063a2;}.cls-3{fill:#fff;}</style></defs><g id="Layer_2" data-name="Layer 2"><g id="Layer_1-2" data-name="Layer 1"><rect class="cls-1" y="108" width="657" height="135"/><rect class="cls-2" x="252" width="135" height="135"/><polygon class="cls-3" points="378 126 261 126 261 117 261 99 270 99 270 117 369 117 369 99 378 99 378 126"/><polygon class="cls-3" points="378 90 369 90 369 18 270 18 270 90 261 90 261 9 378 9 378 90"/><path class="cls-3" d="M351,72V45H288V72h-9v36h9V99h63v9h9V72ZM297,90h-9V81h9Zm0-36h45V72H297Zm36,36H306V81h27Zm18,0h-9V81h9Z"/><path class="cls-3" d="M36,205.48V144.3H69.53q14.85,0,14.85,14.89v8.7q0,14.9-14.85,14.89H44.79v22.7ZM44.79,174H69.06c2.34,0,4-.51,5-1.53s1.53-2.7,1.53-5v-7.85q0-3.5-1.53-5c-1-1-2.7-1.54-5-1.54H44.79Z"/><path class="cls-3" d="M118.43,144.3,142,205.48h-8.75l-5.42-14.08h-27.6l-5.42,14.08H86.09l23.59-61.18Zm-14.85,38.35h20.9l-10.41-27Z"/><path class="cls-3" d="M200.85,166.14q0,12.8-10.92,14.59l11.52,24.75h-9.69L180.42,181H161.26v24.45h-8.75V144.3H186q14.85,0,14.85,14.89Zm-39.59,6.14h24.27q3.51,0,5-1.53c1-1,1.54-2.7,1.54-5v-6.1c0-2.33-.52-4-1.54-5s-2.7-1.54-5-1.54H161.26Z"/><path class="cls-3" d="M224.19,144.3v26.41l29.18-26.41H265.7l-33.11,30L267,205.48H254.69L224.19,178v27.52h-8.75V144.3Z"/><path class="cls-3" d="M299.23,165.19a6.36,6.36,0,0,1,.52-2.58,7,7,0,0,1,1.42-2.12,6.73,6.73,0,0,1,2.11-1.43,6.55,6.55,0,0,1,2.61-.53H315a6.38,6.38,0,0,1,2.52.51,6.81,6.81,0,0,1,2.1,1.37,7,7,0,0,1,1.45,2,6,6,0,0,1,.59,2.48v-6.39h6.62v27.28h9.64V160.7a12.35,12.35,0,0,0-.68-4.23,8.33,8.33,0,0,0-5.14-5.14,12.29,12.29,0,0,0-4.22-.67H300.34a12.33,12.33,0,0,0-4.22.67,8.38,8.38,0,0,0-3.14,2,8.75,8.75,0,0,0-2,3.16,12.11,12.11,0,0,0-.69,4.23V190a12.87,12.87,0,0,0,.67,4.31,9,9,0,0,0,2,3.25,8.5,8.5,0,0,0,3.15,2,11.87,11.87,0,0,0,4.25.71h36a6.2,6.2,0,0,1-.54,2.54,7,7,0,0,1-3.58,3.58,6.23,6.23,0,0,1-2.54.54H300.61a19.46,19.46,0,0,1-7-1.2,14.63,14.63,0,0,1-8.77-8.77,19.51,19.51,0,0,1-1.2-7V161a19.51,19.51,0,0,1,1.2-7,14.63,14.63,0,0,1,8.77-8.77,19.46,19.46,0,0,1,7-1.2h27a19.51,19.51,0,0,1,7,1.2,14.7,14.7,0,0,1,8.77,8.77,19.51,19.51,0,0,1,1.2,7v24.84a6.5,6.5,0,0,1-.53,2.6,6.62,6.62,0,0,1-1.43,2.11,7,7,0,0,1-2.12,1.42,6.37,6.37,0,0,1-2.58.53h-9.64a6.48,6.48,0,0,1-2.48-.48,6.35,6.35,0,0,1-2-1.3,6.77,6.77,0,0,1-1.44-1.94,6.45,6.45,0,0,1-.66-2.37,6.12,6.12,0,0,1-.69,2.37,7.32,7.32,0,0,1-1.49,1.94,6.82,6.82,0,0,1-2,1.3,6.28,6.28,0,0,1-2.44.48h-9.12a6.55,6.55,0,0,1-2.61-.53,6.7,6.7,0,0,1-2.11-1.42,6.59,6.59,0,0,1-1.42-2.11,6.49,6.49,0,0,1-.52-2.6Zm22.44,0H305.89v20.62h15.78Z"/><path class="cls-3" d="M412.52,144.3v61.18h-8.75v-26.2h-35v26.2H360V144.3h8.75v26.23h35V144.3Z"/><path class="cls-3" d="M480.65,196.73a8.62,8.62,0,0,1-.68,3.39,8.71,8.71,0,0,1-4.67,4.67,8.49,8.49,0,0,1-3.39.69H437a8.49,8.49,0,0,1-3.39-.69,8.71,8.71,0,0,1-4.67-4.67,8.62,8.62,0,0,1-.68-3.39V153a8.66,8.66,0,0,1,.68-3.39,8.49,8.49,0,0,1,1.88-2.77,9.32,9.32,0,0,1,2.79-1.88,8.33,8.33,0,0,1,3.39-.7h35a8.33,8.33,0,0,1,3.39.7,9.32,9.32,0,0,1,2.79,1.88,8.49,8.49,0,0,1,1.88,2.77,8.66,8.66,0,0,1,.68,3.39ZM437,153v43.69h35V153Z"/><path class="cls-3" d="M527.92,205.48,505.1,160.64v44.84h-8.75V144.3h9.56l23.29,46.07,23.34-46.07h9.51v61.18h-8.7V160.64l-22.82,44.84Z"/><path class="cls-3" d="M577.8,144.3h44.58V153H586.54v17.49h30.59v8.75H586.54v17.45h35.84v8.75H577.8Z"/><polygon class="cls-3" points="9 207 9 234 648 234 648 207 638.87 207 638.87 225 18.13 225 18.13 207 9 207"/><polygon class="cls-3" points="9 198 9 117 252 117 252 126 18 126 18 198 9 198"/><polygon class="cls-3" points="387 117 648 117 648 198 639 198 639 126 387 126 387 117"/></g></g></svg>