<svg xmlns="http://www.w3.org/2000/svg" viewBox="0 0 763 117"><defs><style>.cls-1{fill:#0063a1;}</style></defs><g id="Layer_2" data-name="Layer 2"><g id="Layer_1-2" data-name="Layer 1"><polygon class="cls-1" points="117 117 0 117 0 108 0 90 9 90 9 108 108 108 108 90 117 90 117 117"/><polygon class="cls-1" points="117 81 108 81 108 9 9 9 9 81 0 81 0 0 117 0 117 81"/><path class="cls-1" d="M90,63V36H27V63H18V99h9V90H90v9h9V63ZM36,81H27V72h9Zm0-36H81V63H36ZM72,81H45V72H72Zm18,0H81V72h9Z"/><path class="cls-1" d="M151,88.48V27.3h33.49q14.85,0,14.85,14.89v8.7q0,14.89-14.85,14.89H159.79v22.7ZM159.79,57h24.27c2.34,0,4-.51,5-1.53s1.53-2.7,1.53-5V42.61q0-3.49-1.53-5c-1-1-2.7-1.54-5-1.54H159.79Z"/><path class="cls-1" d="M233.43,27.3,257,88.48h-8.75L242.85,74.4h-27.6l-5.42,14.08h-8.74L224.68,27.3ZM218.58,65.65h20.9l-10.41-27Z"/><path class="cls-1" d="M315.85,49.14q0,12.8-10.92,14.59l11.52,24.75h-9.69L295.42,64H276.26V88.48h-8.75V27.3H301q14.85,0,14.85,14.89Zm-39.59,6.14h24.27q3.51,0,5-1.53c1-1,1.54-2.7,1.54-5v-6.1c0-2.33-.52-4-1.54-5s-2.7-1.54-5-1.54H276.26Z"/><path class="cls-1" d="M339.19,27.3V53.71L368.37,27.3H380.7l-33.11,30L382,88.48H369.69L339.19,61V88.48h-8.75V27.3Z"/><path class="cls-1" d="M414.23,48.19a6.36,6.36,0,0,1,.52-2.58,7,7,0,0,1,1.42-2.12,6.73,6.73,0,0,1,2.11-1.43,6.55,6.55,0,0,1,2.61-.53H430a6.38,6.38,0,0,1,2.52.51,6.81,6.81,0,0,1,2.1,1.37,7,7,0,0,1,1.45,2,6,6,0,0,1,.59,2.48V41.53h6.62V68.81h9.64V43.7a12.35,12.35,0,0,0-.68-4.23,8.33,8.33,0,0,0-5.14-5.14,12.29,12.29,0,0,0-4.22-.67H415.34a12.33,12.33,0,0,0-4.22.67,8.38,8.38,0,0,0-3.14,2,8.75,8.75,0,0,0-2,3.16,12.11,12.11,0,0,0-.69,4.23V73a12.87,12.87,0,0,0,.67,4.31,9,9,0,0,0,2,3.25,8.5,8.5,0,0,0,3.15,2,11.87,11.87,0,0,0,4.25.71h36a6.2,6.2,0,0,1-.54,2.54,7,7,0,0,1-3.58,3.58,6.23,6.23,0,0,1-2.54.54H415.61a19.46,19.46,0,0,1-7-1.2A14.63,14.63,0,0,1,399.85,80a19.51,19.51,0,0,1-1.2-7V44a19.51,19.51,0,0,1,1.2-7,14.63,14.63,0,0,1,8.77-8.77,19.46,19.46,0,0,1,7-1.2h27a19.51,19.51,0,0,1,7,1.2A14.7,14.7,0,0,1,458.39,37a19.51,19.51,0,0,1,1.2,7V68.81a6.5,6.5,0,0,1-.53,2.6,6.62,6.62,0,0,1-1.43,2.11,7,7,0,0,1-2.12,1.42,6.37,6.37,0,0,1-2.58.53h-9.64a6.48,6.48,0,0,1-2.48-.48,6.35,6.35,0,0,1-2-1.3,6.77,6.77,0,0,1-1.44-1.94,6.45,6.45,0,0,1-.66-2.37,6.12,6.12,0,0,1-.69,2.37,7.32,7.32,0,0,1-1.49,1.94,6.82,6.82,0,0,1-2,1.3,6.28,6.28,0,0,1-2.44.48h-9.12a6.55,6.55,0,0,1-2.61-.53,6.7,6.7,0,0,1-2.11-1.42,6.59,6.59,0,0,1-1.42-2.11,6.49,6.49,0,0,1-.52-2.6Zm22.44,0H420.89V68.81h15.78Z"/><path class="cls-1" d="M527.52,27.3V88.48h-8.75V62.28h-35v26.2H475V27.3h8.75V53.53h35V27.3Z"/><path class="cls-1" d="M595.65,79.73a8.62,8.62,0,0,1-.68,3.39,8.71,8.71,0,0,1-4.67,4.67,8.49,8.49,0,0,1-3.39.69H552a8.49,8.49,0,0,1-3.39-.69,8.71,8.71,0,0,1-4.67-4.67,8.62,8.62,0,0,1-.68-3.39V36a8.66,8.66,0,0,1,.68-3.39,8.49,8.49,0,0,1,1.88-2.77A9.32,9.32,0,0,1,548.57,28a8.33,8.33,0,0,1,3.39-.7h34.95a8.33,8.33,0,0,1,3.39.7,9.32,9.32,0,0,1,2.79,1.88A8.49,8.49,0,0,1,595,32.65a8.66,8.66,0,0,1,.68,3.39ZM552,36V79.73h34.95V36Z"/><path class="cls-1" d="M642.92,88.48,620.1,43.64V88.48h-8.75V27.3h9.56L644.2,73.37,667.54,27.3h9.51V88.48h-8.7V43.64L645.53,88.48Z"/><path class="cls-1" d="M692.8,27.3h44.58V36H701.54V53.53h30.59v8.75H701.54V79.73h35.84v8.75H692.8Z"/><polygon class="cls-1" points="124 90 124 117 763 117 763 90 753.87 90 753.87 108 133.13 108 133.13 90 124 90"/></g></g></svg>