<svg xmlns="http://www.w3.org/2000/svg" viewBox="0 0 639 225"><defs><style>.cls-1{fill:#0063a1;}</style></defs><g id="Layer_2" data-name="Layer 2"><g id="Layer_1-2" data-name="Layer 1"><polygon class="cls-1" points="369 117 252 117 252 108 252 90 261 90 261 108 360 108 360 90 369 90 369 117"/><polygon class="cls-1" points="369 81 360 81 360 9 261 9 261 81 252 81 252 0 369 0 369 81"/><path class="cls-1" d="M342,63V36H279V63h-9V99h9V90h63v9h9V63ZM288,81h-9V72h9Zm0-36h45V63H288Zm36,36H297V72h27Zm18,0h-9V72h9Z"/><path class="cls-1" d="M27,196.48V135.3H60.53q14.85,0,14.85,14.89v8.7q0,14.9-14.85,14.89H35.79v22.7ZM35.79,165H60.06c2.34,0,4-.51,5-1.53s1.53-2.7,1.53-5v-7.85q0-3.5-1.53-5c-1-1-2.7-1.54-5-1.54H35.79Z"/><path class="cls-1" d="M109.43,135.3,133,196.48h-8.75l-5.42-14.08H91.25l-5.42,14.08H77.09l23.59-61.18ZM94.58,173.65h20.9l-10.41-27Z"/><path class="cls-1" d="M191.85,157.14q0,12.8-10.92,14.59l11.52,24.75h-9.69L171.42,172H152.26v24.45h-8.75V135.3H177q14.85,0,14.85,14.89Zm-39.59,6.14h24.27q3.51,0,5-1.53c1-1,1.54-2.7,1.54-5v-6.1c0-2.33-.52-4-1.54-5s-2.7-1.54-5-1.54H152.26Z"/><path class="cls-1" d="M215.19,135.3v26.41l29.18-26.41H256.7l-33.11,30L258,196.48H245.69L215.19,169v27.52h-8.75V135.3Z"/><path class="cls-1" d="M290.23,156.19a6.36,6.36,0,0,1,.52-2.58,7,7,0,0,1,1.42-2.12,6.73,6.73,0,0,1,2.11-1.43,6.55,6.55,0,0,1,2.61-.53H306a6.38,6.38,0,0,1,2.52.51,6.81,6.81,0,0,1,2.1,1.37,7,7,0,0,1,1.45,2,6,6,0,0,1,.59,2.48v-6.39h6.62v27.28h9.64V151.7a12.35,12.35,0,0,0-.68-4.23,8.33,8.33,0,0,0-5.14-5.14,12.29,12.29,0,0,0-4.22-.67H291.34a12.33,12.33,0,0,0-4.22.67,8.38,8.38,0,0,0-3.14,2,8.75,8.75,0,0,0-2,3.16,12.11,12.11,0,0,0-.69,4.23V181a12.87,12.87,0,0,0,.67,4.31,9,9,0,0,0,2,3.25,8.5,8.5,0,0,0,3.15,2,11.87,11.87,0,0,0,4.25.71h36a6.2,6.2,0,0,1-.54,2.54,7,7,0,0,1-3.58,3.58,6.23,6.23,0,0,1-2.54.54H291.61a19.46,19.46,0,0,1-7-1.2,14.63,14.63,0,0,1-8.77-8.77,19.51,19.51,0,0,1-1.2-7V152a19.51,19.51,0,0,1,1.2-7,14.63,14.63,0,0,1,8.77-8.77,19.46,19.46,0,0,1,7-1.2h27a19.51,19.51,0,0,1,7,1.2,14.7,14.7,0,0,1,8.77,8.77,19.51,19.51,0,0,1,1.2,7v24.84a6.5,6.5,0,0,1-.53,2.6,6.62,6.62,0,0,1-1.43,2.11,7,7,0,0,1-2.12,1.42,6.37,6.37,0,0,1-2.58.53h-9.64a6.48,6.48,0,0,1-2.48-.48,6.35,6.35,0,0,1-2-1.3,6.77,6.77,0,0,1-1.44-1.94,6.45,6.45,0,0,1-.66-2.37,6.12,6.12,0,0,1-.69,2.37,7.32,7.32,0,0,1-1.49,1.94,6.82,6.82,0,0,1-2,1.3,6.28,6.28,0,0,1-2.44.48h-9.12a6.55,6.55,0,0,1-2.61-.53,6.7,6.7,0,0,1-2.11-1.42,6.59,6.59,0,0,1-1.42-2.11,6.49,6.49,0,0,1-.52-2.6Zm22.44,0H296.89v20.62h15.78Z"/><path class="cls-1" d="M403.52,135.3v61.18h-8.75v-26.2h-35v26.2H351V135.3h8.75v26.23h35V135.3Z"/><path class="cls-1" d="M471.65,187.73a8.62,8.62,0,0,1-.68,3.39,8.71,8.71,0,0,1-4.67,4.67,8.49,8.49,0,0,1-3.39.69H428a8.49,8.49,0,0,1-3.39-.69,8.71,8.71,0,0,1-4.67-4.67,8.62,8.62,0,0,1-.68-3.39V144a8.66,8.66,0,0,1,.68-3.39,8.49,8.49,0,0,1,1.88-2.77,9.32,9.32,0,0,1,2.79-1.88,8.33,8.33,0,0,1,3.39-.7h35a8.33,8.33,0,0,1,3.39.7,9.32,9.32,0,0,1,2.79,1.88,8.49,8.49,0,0,1,1.88,2.77,8.66,8.66,0,0,1,.68,3.39ZM428,144v43.69h35V144Z"/><path class="cls-1" d="M518.92,196.48,496.1,151.64v44.84h-8.75V135.3h9.56l23.29,46.07,23.34-46.07h9.51v61.18h-8.7V151.64l-22.82,44.84Z"/><path class="cls-1" d="M568.8,135.3h44.58V144H577.54v17.49h30.59v8.75H577.54v17.45h35.84v8.75H568.8Z"/><polygon class="cls-1" points="0 198 0 225 639 225 639 198 629.87 198 629.87 216 9.13 216 9.13 198 0 198"/><polygon class="cls-1" points="0 189 0 108 243 108 243 117 9 117 9 189 0 189"/><polygon class="cls-1" points="378 108 639 108 639 189 630 189 630 117 378 117 378 108"/></g></g></svg>